<?xml version="1.0" standalone="no"?>
<!DOCTYPE svg PUBLIC "-//W3C//DTD SVG 20010904//EN"
 "http://www.w3.org/TR/2001/REC-SVG-20010904/DTD/svg10.dtd">
<svg version="1.0" xmlns="http://www.w3.org/2000/svg"
 width="900.000000pt" height="900.000000pt" viewBox="0 0 900.000000 900.000000"
 preserveAspectRatio="xMidYMid meet">
<metadata>
Created by potrace 1.10, written by Peter Selinger 2001-2011
</metadata>
<g transform="translate(0.000000,900.000000) scale(0.100000,-0.100000)"
fill="#000000" stroke="none">
<path d="M4025 8194 c-113 -16 -233 -40 -285 -56 -19 -6 -51 -15 -70 -19 -54
-11 -154 -48 -245 -89 -33 -15 -67 -31 -75 -34 -8 -3 -22 -10 -30 -16 -8 -5
-50 -29 -92 -54 -177 -102 -389 -284 -560 -481 -96 -111 -295 -399 -342 -495
-4 -8 -22 -42 -41 -75 -18 -33 -42 -78 -53 -100 -49 -100 -102 -215 -122 -265
-12 -30 -26 -64 -32 -74 -6 -11 -14 -31 -18 -45 -5 -14 -18 -51 -30 -81 -12
-30 -25 -68 -30 -85 -5 -16 -14 -46 -21 -65 -6 -19 -17 -51 -24 -70 -7 -19
-20 -62 -30 -95 -10 -33 -23 -80 -31 -105 -12 -43 -28 -104 -58 -227 -19 -78
-41 -182 -59 -278 -9 -44 -21 -107 -27 -140 -6 -33 -15 -94 -20 -135 -5 -41
-13 -95 -19 -120 -6 -25 -11 -63 -11 -85 0 -22 -6 -94 -15 -160 -43 -347 -57
-939 -30 -1285 8 -102 15 -241 15 -310 0 -69 5 -141 10 -160 6 -19 14 -60 19
-90 18 -108 79 -239 146 -312 48 -52 117 -108 133 -108 4 0 13 -5 20 -12 14
-14 65 -33 161 -59 95 -26 312 -28 380 -4 24 8 49 15 56 15 33 0 112 45 217
123 42 31 80 57 83 57 4 0 24 13 44 28 75 58 214 78 315 45 139 -45 251 -106
406 -223 284 -213 360 -245 560 -237 176 6 267 30 367 95 58 37 263 234 263
252 0 21 66 98 110 129 41 28 53 31 120 31 90 0 168 -23 294 -85 94 -47 101
-51 174 -97 24 -16 45 -28 47 -28 2 0 24 -13 48 -30 25 -16 48 -30 53 -30 4 0
15 -6 23 -13 16 -14 78 -34 187 -62 90 -23 355 -21 454 4 67 16 169 59 225 94
100 62 216 174 240 230 7 17 17 35 21 40 32 31 65 195 66 319 0 181 -45 519
-98 730 -8 32 -14 77 -14 100 0 39 -9 88 -42 228 -6 25 -14 65 -18 90 -8 48
-23 114 -46 196 -8 28 -14 59 -14 69 0 10 -6 41 -14 69 -8 28 -21 85 -30 126
-8 41 -22 111 -31 155 -10 44 -23 109 -31 145 -7 36 -20 112 -29 170 -44 296
-75 464 -120 650 -19 79 -62 293 -74 370 -7 43 -14 70 -48 190 -62 218 -93
301 -180 475 -28 55 -60 116 -72 135 -11 19 -24 42 -28 50 -12 26 -150 227
-170 248 -10 10 -40 46 -68 80 -138 171 -479 474 -610 542 -11 6 -47 26 -80
45 -62 35 -367 187 -420 210 -91 39 -319 76 -456 74 -52 -1 -139 -8 -194 -15z
m298 -239 c40 -9 106 -22 147 -31 41 -9 98 -22 126 -30 28 -8 60 -14 72 -14
12 0 36 -6 54 -14 18 -8 53 -22 78 -31 41 -16 149 -67 218 -104 56 -29 239
-156 282 -195 59 -54 265 -260 316 -316 42 -47 164 -205 164 -214 0 -2 17 -31
39 -63 21 -32 50 -80 65 -108 15 -27 31 -57 36 -65 14 -24 62 -132 71 -160 4
-14 17 -50 29 -80 12 -30 26 -71 30 -90 5 -19 18 -66 30 -105 11 -38 25 -96
30 -127 6 -32 15 -69 20 -84 6 -14 10 -37 10 -52 0 -25 16 -109 42 -212 6 -25
14 -63 18 -85 4 -22 12 -60 18 -85 18 -73 40 -188 57 -295 9 -55 22 -136 31
-180 8 -44 14 -93 14 -108 0 -15 6 -56 14 -90 8 -34 22 -98 31 -142 9 -44 21
-100 27 -125 6 -25 14 -65 18 -90 4 -25 12 -63 18 -85 6 -22 17 -69 25 -105 9
-36 22 -94 31 -130 8 -36 22 -99 32 -140 9 -41 22 -100 29 -130 8 -30 19 -89
25 -130 7 -41 19 -100 28 -130 8 -30 18 -75 23 -100 4 -25 12 -70 18 -100 47
-241 65 -469 46 -585 -41 -250 -126 -359 -345 -436 -82 -29 -343 -30 -415 -1
-54 21 -56 23 -222 123 -135 82 -260 141 -358 171 -132 41 -210 51 -292 39
-133 -19 -146 -23 -199 -57 -76 -48 -90 -61 -156 -149 -173 -229 -283 -296
-483 -295 -78 1 -96 4 -130 25 -22 14 -47 28 -55 32 -8 4 -67 46 -130 93 -124
93 -231 164 -295 195 -22 11 -47 25 -55 31 -8 6 -24 14 -35 17 -11 3 -45 15
-75 26 -74 29 -231 61 -296 61 -55 0 -187 -28 -239 -51 -29 -13 -167 -102
-274 -178 -82 -58 -133 -73 -263 -74 -110 0 -149 8 -208 44 -8 5 -24 13 -35
18 -30 13 -113 89 -127 116 -76 141 -103 243 -118 445 -29 390 -32 486 -27
805 4 317 10 425 38 695 6 58 15 141 19 185 4 44 13 107 18 140 6 33 18 105
27 160 15 95 21 126 60 310 29 140 90 370 120 455 7 19 22 64 33 100 30 94 43
131 57 165 7 17 20 50 30 75 49 128 147 337 210 445 19 33 39 69 45 80 37 70
156 241 258 372 123 158 437 441 553 497 8 3 28 15 44 25 29 19 151 80 210
106 70 31 135 51 275 89 30 8 100 19 155 25 55 6 111 13 125 15 59 8 126 5
193 -9z"/>
<path d="M3165 6328 c-155 -29 -340 -161 -476 -339 -51 -67 -68 -93 -108 -169
-41 -76 -66 -184 -56 -238 17 -97 87 -186 156 -197 141 -24 369 111 525 310
21 28 42 52 45 55 3 3 19 27 35 55 16 27 34 59 41 70 7 11 15 27 18 35 4 8 11
23 16 32 31 60 51 145 52 224 0 82 -1 86 -32 118 -51 52 -108 64 -216 44z"/>
<path d="M3865 6265 c-105 -26 -144 -64 -165 -158 -11 -46 -11 -71 -1 -130 12
-69 41 -169 60 -205 5 -9 19 -37 31 -62 34 -70 103 -174 165 -249 41 -50 151
-159 190 -188 83 -62 216 -123 271 -123 42 0 99 32 128 72 28 39 56 142 56
207 0 106 -61 297 -133 416 -28 46 -133 183 -171 223 -91 97 -226 182 -311
196 -22 4 -47 9 -55 11 -8 2 -37 -3 -65 -10z"/>
<path d="M5885 1330 c-44 -4 -129 -10 -190 -14 -170 -11 -449 -49 -600 -84
-141 -31 -271 -83 -305 -120 -66 -72 -85 -152 -45 -189 57 -53 221 -105 430
-137 674 -103 1810 -74 2330 61 245 63 325 127 281 225 -46 102 -145 149 -421
197 -149 26 -208 33 -320 42 -66 4 -172 13 -235 18 -127 12 -799 12 -925 1z"/>
</g>
</svg>
